<svg width="11" height="11" viewBox="0 0 11 11" fill="none" xmlns="http://www.w3.org/2000/svg">
<path d="M10.4875 0.520424C10.1788 0.211674 9.68001 0.211674 9.37126 0.520424L5.50001 4.38376L1.62876 0.512507C1.32001 0.203757 0.821257 0.203757 0.512507 0.512507C0.203757 0.821257 0.203757 1.32001 0.512507 1.62876L4.38376 5.50001L0.512507 9.37126C0.203757 9.68001 0.203757 10.1788 0.512507 10.4875C0.821257 10.7963 1.32001 10.7963 1.62876 10.4875L5.50001 6.61626L9.37126 10.4875C9.68001 10.7963 10.1788 10.7963 10.4875 10.4875C10.7963 10.1788 10.7963 9.68001 10.4875 9.37126L6.61626 5.50001L10.4875 1.62876C10.7883 1.32792 10.7883 0.821258 10.4875 0.520424V0.520424Z" fill="#F1F1F1"/>
</svg>
