<svg width="22" height="25" viewBox="0 0 22 25" fill="none" xmlns="http://www.w3.org/2000/svg">
<path d="M12.6088 2.5L19.25 8.5375V22.5H2.75V2.5H12.6088ZM13.75 0H2.75C1.2375 0 0 1.125 0 2.5V22.5C0 23.875 1.2375 25 2.75 25H19.25C20.7625 25 22 23.875 22 22.5V7.5L13.75 0ZM11 15C12.5125 15 13.75 13.875 13.75 12.5C13.75 11.125 12.5125 10 11 10C9.4875 10 8.25 11.125 8.25 12.5C8.25 13.875 9.4875 15 11 15ZM16.5 19.2875C16.5 18.275 15.84 17.375 14.8225 16.975C13.6537 16.5125 12.3612 16.25 11 16.25C9.63875 16.25 8.34625 16.5125 7.1775 16.975C6.16 17.375 5.5 18.275 5.5 19.2875V20H16.5V19.2875Z" fill="#114084"/>
</svg>
