<svg width="16" height="17" viewBox="0 0 16 17" fill="none" xmlns="http://www.w3.org/2000/svg">
<path d="M0.94158 15.9961L4.95048 14.9561C5.05927 14.9284 5.1586 14.8724 5.23818 14.7939L15.3455 4.79118C15.4635 4.67418 15.5297 4.51558 15.5297 4.35021C15.5297 4.18485 15.4635 4.02626 15.3455 3.90926L12.3761 0.968135C12.258 0.851281 12.0978 0.785645 11.9309 0.785645C11.7639 0.785645 11.6038 0.851281 11.4857 0.968135L1.37838 10.9792C1.29911 11.058 1.24256 11.1564 1.21458 11.2641L0.17298 15.2349C0.145251 15.3402 0.14581 15.4508 0.174602 15.5558C0.203394 15.6609 0.259417 15.7566 0.337111 15.8336C0.414804 15.9105 0.511467 15.966 0.617503 15.9945C0.723539 16.023 0.835261 16.0236 0.94158 15.9961ZM10.1816 4.01742L12.2606 6.07662L11.3702 6.95853L9.29118 4.89933L10.1816 4.01742ZM8.39868 5.78333L10.4777 7.84253L4.84338 13.4294L2.76438 11.3702L8.39868 5.78333Z" fill="white"/>
</svg>
