<svg width="27" height="25" viewBox="0 0 27 25" fill="none" xmlns="http://www.w3.org/2000/svg">
<path d="M13.5 22.9167C14.7375 22.9167 15.75 21.9792 15.75 20.8333H11.25C11.25 21.9792 12.2625 22.9167 13.5 22.9167ZM20.25 16.6667V11.4583C20.25 8.26041 18.4163 5.58332 15.1875 4.87499V4.16666C15.1875 3.30207 14.4338 2.60416 13.5 2.60416C12.5662 2.60416 11.8125 3.30207 11.8125 4.16666V4.87499C8.595 5.58332 6.75 8.24999 6.75 11.4583V16.6667L4.5 18.75V19.7917H22.5V18.75L20.25 16.6667ZM18 17.7083H9V11.4583C9 8.87499 10.6988 6.77082 13.5 6.77082C16.3013 6.77082 18 8.87499 18 11.4583V17.7083Z" fill="white"/>
</svg>
