<svg width="13" height="13" viewBox="0 0 13 13" fill="none" xmlns="http://www.w3.org/2000/svg">
<path d="M7 3.25C7.6875 3.25 8.25 3.8125 8.25 4.5C8.25 5.1875 7.6875 5.75 7 5.75C6.3125 5.75 5.75 5.1875 5.75 4.5C5.75 3.8125 6.3125 3.25 7 3.25ZM7 9.5C8.6875 9.5 10.625 10.3063 10.75 10.75H3.25C3.39375 10.3 5.31875 9.5 7 9.5ZM7 2C5.61875 2 4.5 3.11875 4.5 4.5C4.5 5.88125 5.61875 7 7 7C8.38125 7 9.5 5.88125 9.5 4.5C9.5 3.11875 8.38125 2 7 2ZM7 8.25C5.33125 8.25 2 9.0875 2 10.75V12H12V10.75C12 9.0875 8.66875 8.25 7 8.25Z" fill="#114084"/>
</svg>
