<svg width="22" height="21" viewBox="0 0 22 21" fill="none" xmlns="http://www.w3.org/2000/svg">
<path d="M10.9951 0C14.0399 0 16.7832 1.18018 18.7785 3.07508C20.7633 4.97969 22 7.59831 22 10.495C22 13.4017 20.7633 16.0207 18.7785 17.9249C16.7832 19.8198 14.0399 21 10.9951 21C7.96013 21 5.21681 19.8198 3.22151 17.9249C1.23675 16.0207 0 13.4017 0 10.495C0 7.59831 1.23675 4.97969 3.22151 3.07508C5.21718 1.18018 7.9605 0 10.9951 0ZM10.9951 3.7398C12.0653 3.7398 13.0213 4.14627 13.7177 4.81099C14.4137 5.47571 14.8501 6.39799 14.8501 7.40982C14.8501 8.42166 14.4137 9.34429 13.7177 10.009C13.0213 10.6734 12.0653 11.0802 10.9951 11.0802C9.93471 11.0802 8.97869 10.6734 8.28232 10.009C7.58631 9.34429 7.14994 8.42166 7.14994 7.40982C7.14994 6.39799 7.58631 5.47571 8.28232 4.81099C8.97869 4.14627 9.93471 3.7398 10.9951 3.7398ZM7.47212 12.2607H14.5282C15.6508 12.2607 16.669 12.6974 17.4068 13.4017C18.1032 14.0761 18.5501 14.9887 18.5916 15.9908C19.8076 14.4729 20.5349 12.5686 20.5349 10.495C20.5349 7.98569 19.4647 5.71383 17.7396 4.06678C16.0144 2.42007 13.6344 1.39817 10.9951 1.39817C8.36596 1.39817 5.98592 2.41973 4.26043 4.06678C2.53604 5.71383 1.46548 7.98569 1.46548 10.495C1.46548 12.5686 2.19276 14.4729 3.39824 15.9908C3.43969 14.9887 3.89679 14.0761 4.59317 13.4017C5.33136 12.6974 6.34956 12.2607 7.47212 12.2607Z" fill="white"/>
</svg>
