<svg width="301" height="308" viewBox="0 0 301 308" fill="none" xmlns="http://www.w3.org/2000/svg">
<path d="M0 25C0 11.1929 11.1929 0 25 0H276C289.807 0 301 11.1929 301 25V283C301 296.807 289.807 308 276 308H25C11.1929 308 0 296.807 0 283V25Z" fill="#3466AA" fill-opacity="0.05"/>
<circle cx="157" cy="83" r="25" fill="#FFB703"/>
<path d="M166.1 68H147.9C147.185 68 146.6 68.5812 146.6 69.2917C146.6 70.0021 147.185 70.5833 147.9 70.5833H166.1C166.815 70.5833 167.4 70.0021 167.4 69.2917C167.4 68.5812 166.815 68 166.1 68ZM147.9 99H166.1C166.815 99 167.4 98.4187 167.4 97.7083C167.4 96.9979 166.815 96.4167 166.1 96.4167H147.9C147.185 96.4167 146.6 96.9979 146.6 97.7083C146.6 98.4187 147.185 99 147.9 99ZM167.4 73.1667H146.6C145.17 73.1667 144 74.3292 144 75.75V91.25C144 92.6708 145.17 93.8333 146.6 93.8333H167.4C168.83 93.8333 170 92.6708 170 91.25V75.75C170 74.3292 168.83 73.1667 167.4 73.1667ZM157 76.7188C158.612 76.7188 159.925 78.0233 159.925 79.625C159.925 81.2267 158.612 82.5312 157 82.5312C155.388 82.5312 154.075 81.2267 154.075 79.625C154.075 78.0233 155.388 76.7188 157 76.7188ZM163.5 89.9583H150.5V88.0208C150.5 85.8637 154.829 84.7917 157 84.7917C159.171 84.7917 163.5 85.8637 163.5 88.0208V89.9583Z" fill="white"/>
<circle cx="247" cy="83" r="25" fill="#219EBC"/>
<path d="M252.333 84.4H248.333C247.6 84.4 247 85.03 247 85.8V90C247 90.77 247.6 91.4 248.333 91.4H252.333C253.067 91.4 253.667 90.77 253.667 90V85.8C253.667 85.03 253.067 84.4 252.333 84.4ZM252.333 70.4V71.8H241.667V70.4C241.667 69.63 241.067 69 240.333 69C239.6 69 239 69.63 239 70.4V71.8H237.667C236.187 71.8 235.013 73.06 235.013 74.6L235 94.2C235 95.74 236.187 97 237.667 97H256.333C257.8 97 259 95.74 259 94.2V74.6C259 73.06 257.8 71.8 256.333 71.8H255V70.4C255 69.63 254.4 69 253.667 69C252.933 69 252.333 69.63 252.333 70.4ZM255 94.2H239C238.267 94.2 237.667 93.57 237.667 92.8V78.8H256.333V92.8C256.333 93.57 255.733 94.2 255 94.2Z" fill="white"/>
<g clip-path="url(#clip0_180:2)">
<path d="M39.4662 156.041L31.1827 195.429C29.7538 202.223 40.6673 210.277 55.5432 213.405L238.797 251.945C253.673 255.073 266.906 252.098 268.335 245.303L276.619 205.915C278.047 199.121 267.134 191.067 252.258 187.939L69.004 149.399C54.1281 146.271 40.8952 149.246 39.4662 156.041ZM261.697 223.342C260.838 227.429 252.922 229.209 243.974 227.327C235.027 225.445 228.499 220.628 229.358 216.541C230.218 212.455 238.134 210.675 247.081 212.556C256.028 214.438 262.557 219.256 261.697 223.342ZM223.238 192.118L213.919 236.43L63.0039 204.692L72.3229 160.38L223.238 192.118Z" fill="#3466AA" fill-opacity="0.3"/>
<rect x="146" y="199.91" width="7.05044" height="18" transform="rotate(-78.525 146 199.91)" fill="#114084" fill-opacity="0.4"/>
</g>
<path d="M247 110L156.5 198.5M156.5 198.5V110M156.5 198.5L66.5 110" stroke="#114084" stroke-opacity="0.3"/>
<circle cx="67" cy="83" r="25" fill="#FB8500"/>
<path d="M72.25 86H71.065L70.645 85.595C72.115 83.885 73 81.665 73 79.25C73 73.865 68.635 69.5 63.25 69.5C57.865 69.5 53.5 73.865 53.5 79.25C53.5 84.635 57.865 89 63.25 89C65.665 89 67.885 88.115 69.595 86.645L70 87.065V88.25L77.5 95.735L79.735 93.5L72.25 86ZM63.25 86C59.515 86 56.5 82.985 56.5 79.25C56.5 75.515 59.515 72.5 63.25 72.5C66.985 72.5 70 75.515 70 79.25C70 82.985 66.985 86 63.25 86Z" fill="white"/>
<defs>
<clipPath id="clip0_180:2">
<rect width="120.749" height="255.475" fill="white" transform="translate(13 230.164) rotate(-78.1234)"/>
</clipPath>
</defs>
</svg>
